<svg width="24" height="24" viewBox="0 0 24 24" fill="none" xmlns="http://www.w3.org/2000/svg">
<path d="M11.6387 2.27647C11.8755 2.21318 12.1248 2.21318 12.3616 2.27647C12.6424 2.3515 12.8752 2.5333 12.9978 2.62905L13.0328 2.65625L19.866 7.88153C20.2528 8.17677 20.579 8.42572 20.8218 8.75002C21.0351 9.03498 21.1941 9.35676 21.2909 9.69929C21.401 10.0891 21.4006 10.4994 21.4002 10.9861L21.4001 17.335C21.4002 17.8648 21.4002 18.316 21.3699 18.6865C21.3381 19.0756 21.2685 19.4542 21.0841 19.8161C20.806 20.3618 20.3624 20.8055 19.8167 21.0835C19.4548 21.2679 19.0762 21.3375 18.687 21.3693C18.3166 21.3996 17.8654 21.3996 17.3356 21.3996H12.9005V13.9996C12.9005 13.5026 12.4975 13.0996 12.0005 13.0996C11.5034 13.0996 11.1005 13.5026 11.1005 13.9996V21.3996H6.66479C6.13494 21.3996 5.68374 21.3996 5.31332 21.3693C4.92416 21.3375 4.54556 21.2679 4.18363 21.0835C3.63796 20.8055 3.19432 20.3618 2.91629 19.8161C2.73188 19.4542 2.66224 19.0756 2.63045 18.6865C2.60018 18.316 2.6002 17.8648 2.60021 17.335L2.60015 10.9861C2.59971 10.4995 2.59933 10.0891 2.70948 9.69929C2.80627 9.35676 2.96529 9.03498 3.17859 8.75002C3.42134 8.42572 3.74752 8.17676 4.13433 7.88153L10.9675 2.65625L11.0026 2.62905C11.1252 2.5333 11.358 2.3515 11.6387 2.27647Z" fill="#0066FF"/>
</svg>
