<svg width="24" height="24" viewBox="0 0 24 24" fill="none" xmlns="http://www.w3.org/2000/svg">
<path d="M11.6387 2.27635C11.8755 2.21306 12.1248 2.21306 12.3616 2.27635C12.6424 2.35138 12.8752 2.53318 12.9978 2.62893L13.0328 2.65613L19.866 7.88141C20.2528 8.17664 20.579 8.4256 20.8218 8.7499C21.0351 9.03485 21.1941 9.35664 21.2909 9.69917C21.401 10.089 21.4006 10.4993 21.4002 10.9859L21.4001 17.3349C21.4002 17.8647 21.4002 18.3159 21.3699 18.6863C21.3381 19.0755 21.2685 19.4541 21.0841 19.816C20.806 20.3617 20.3624 20.8053 19.8167 21.0834C19.4548 21.2678 19.0762 21.3374 18.687 21.3692C18.3166 21.3995 17.8654 21.3995 17.3356 21.3994H12.9005V13.9995C12.9005 13.5024 12.4975 13.0995 12.0005 13.0995C11.5034 13.0995 11.1005 13.5024 11.1005 13.9995V21.3994H6.66479C6.13494 21.3995 5.68374 21.3995 5.31332 21.3692C4.92416 21.3374 4.54556 21.2678 4.18363 21.0834C3.63796 20.8053 3.19432 20.3617 2.91629 19.816C2.73188 19.4541 2.66224 19.0755 2.63045 18.6863C2.60018 18.3159 2.6002 17.8647 2.60021 17.3348L2.60015 10.9859C2.59971 10.4993 2.59933 10.089 2.70948 9.69917C2.80627 9.35664 2.96529 9.03485 3.17859 8.7499C3.42134 8.42559 3.74752 8.17664 4.13433 7.88141L10.9675 2.65613L11.0026 2.62893C11.1252 2.53317 11.358 2.35138 11.6387 2.27635Z" fill="#989BA2"/>
</svg>
