<svg width="24" height="24" viewBox="0 0 24 24" fill="none" xmlns="http://www.w3.org/2000/svg">
<path d="M11.5695 7.4583C11.8401 7.32058 12.1604 7.32058 12.431 7.4583C12.6483 7.56883 12.773 7.77389 12.8562 7.93264C12.944 8.10026 13.0373 8.32465 13.1463 8.58679L13.5506 9.55876C13.5868 9.64569 13.6063 9.69219 13.6227 9.72558C13.6276 9.73565 13.631 9.74186 13.633 9.74527C13.636 9.74809 13.6394 9.75052 13.643 9.75251C13.6455 9.75304 13.6493 9.75379 13.6548 9.75469C13.6577 9.75516 13.661 9.75568 13.6649 9.75622C13.7017 9.76148 13.752 9.76571 13.8458 9.77323L14.8951 9.85736C15.1781 9.88003 15.4204 9.89945 15.6069 9.93117C15.7836 9.96122 16.0172 10.0165 16.1894 10.1889C16.404 10.4038 16.503 10.7083 16.4557 11.0083C16.4177 11.2491 16.2612 11.4311 16.1359 11.5593C16.0036 11.6946 15.8191 11.8527 15.6034 12.0374L14.804 12.7222C14.7325 12.7834 14.6943 12.8164 14.6676 12.8423C14.663 12.8468 14.6594 12.8504 14.6567 12.8532C14.6547 12.8553 14.6521 12.8582 14.6521 12.8582C14.6503 12.8619 14.649 12.8658 14.6482 12.8699C14.6487 12.8738 14.6496 12.8808 14.6515 12.8919C14.6579 12.9285 14.6694 12.9776 14.6912 13.0692L14.9355 14.0932C15.0013 14.3693 15.0578 14.6057 15.0852 14.7929C15.1112 14.9703 15.1309 15.2095 15.0201 15.4266C14.8821 15.6971 14.623 15.8853 14.323 15.933C14.0823 15.9713 13.8609 15.8787 13.7003 15.7992C13.5307 15.7152 13.3233 15.5885 13.0811 15.4405L12.1827 14.8918C12.1023 14.8427 12.0592 14.8166 12.0263 14.7992C12.0164 14.7939 12.01 14.7909 12.0064 14.7893C12.0023 14.7888 11.9982 14.7888 11.9941 14.7893C11.9905 14.7909 11.9841 14.7939 11.9742 14.7992C11.9413 14.8166 11.8982 14.8427 11.8178 14.8918L10.9195 15.4405C10.6772 15.5885 10.4698 15.7152 10.3002 15.7992C10.1396 15.8787 9.91817 15.9713 9.67746 15.933C9.37752 15.8853 9.11845 15.6971 8.98042 15.4266C8.86964 15.2095 8.88926 14.9703 8.91528 14.7929C8.94276 14.6057 8.99915 14.3693 9.06504 14.0932L9.30929 13.0692C9.33113 12.9776 9.34265 12.9285 9.34903 12.8919C9.35095 12.8808 9.35185 12.8738 9.35226 12.8699C9.35148 12.8658 9.3502 12.8619 9.34846 12.8582C9.34583 12.8553 9.34096 12.8501 9.33292 12.8423C9.30622 12.8164 9.26803 12.7834 9.19654 12.7222L8.39705 12.0373C8.18146 11.8527 7.99686 11.6946 7.8646 11.5593C7.73932 11.4311 7.58284 11.2491 7.54485 11.0083C7.49751 10.7083 7.59647 10.4038 7.8111 10.1889C7.98334 10.0165 8.21691 9.96122 8.39359 9.93117C8.58014 9.89945 8.82238 9.88003 9.10537 9.85736L10.1547 9.77323C10.2486 9.76571 10.2988 9.76148 10.3356 9.75622C10.3467 9.75464 10.3537 9.75333 10.3575 9.75251C10.3612 9.75052 10.3645 9.74809 10.3675 9.74527C10.3695 9.74187 10.3729 9.73565 10.3778 9.72558C10.3942 9.69219 10.4137 9.64569 10.4499 9.55876L10.8542 8.58679C10.9632 8.32465 11.0565 8.10026 11.1443 7.93264C11.2275 7.77389 11.3522 7.56883 11.5695 7.4583Z" fill="#005EEB"/>
<path fill-rule="evenodd" clip-rule="evenodd" d="M10.026 2.42692C11.1117 1.32477 12.8895 1.32485 13.9752 2.42694L15.0881 3.55672C15.2727 3.74396 15.5251 3.84848 15.7878 3.84651L17.3737 3.83464C18.9207 3.82305 20.1777 5.08022 20.1662 6.62721L20.1543 8.21308C20.1524 8.47594 20.257 8.72834 20.4442 8.91271L21.574 10.0257C22.6761 11.1115 22.676 12.8893 21.5739 13.975L20.4442 15.0879C20.257 15.2724 20.1524 15.5249 20.1543 15.7877L20.1662 17.3735C20.1777 18.9205 18.9207 20.1775 17.3737 20.166L15.7878 20.1541C15.525 20.1522 15.2726 20.2568 15.0881 20.444L13.9752 21.5738C12.8895 22.6759 11.1117 22.6759 10.026 21.5738L8.9129 20.444C8.72853 20.2568 8.47608 20.1522 8.21322 20.1541L6.62739 20.166C5.0804 20.1775 3.8233 18.9205 3.83488 17.3735L3.84675 15.7876C3.84872 15.5249 3.74414 15.2724 3.55691 15.0879L2.42719 13.975C1.32507 12.8892 1.32508 11.1115 2.42719 10.0257L3.55696 8.91269C3.74418 8.72826 3.84872 8.47587 3.84675 8.21307L3.83488 6.6272C3.8233 5.08014 5.08038 3.82305 6.62743 3.83464L8.2133 3.84651C8.4761 3.84848 8.72851 3.74391 8.91294 3.55669L10.026 2.42692ZM12.6929 3.69015C12.3122 3.30371 11.6888 3.30377 11.3083 3.69013L10.1952 4.81995C9.66917 5.3539 8.94934 5.65207 8.19982 5.64646L6.61395 5.63459C6.07152 5.63053 5.63077 6.07129 5.63483 6.61372L5.6467 8.1996C5.65231 8.94911 5.35412 9.66897 4.82017 10.195L3.69041 11.308C3.30398 11.6887 3.30399 12.312 3.69041 12.6927L4.82023 13.8057C5.35413 14.3317 5.65231 15.0516 5.6467 15.8011L5.63483 17.387C5.63077 17.9293 6.07152 18.3701 6.614 18.3661L8.19991 18.3542C8.94931 18.3486 9.66918 18.6468 10.1952 19.1808L11.3082 20.3105C11.6889 20.6969 12.3122 20.6969 12.6929 20.3105L13.8059 19.1807C14.332 18.6467 15.0519 18.3486 15.8013 18.3542L17.3872 18.3661C17.9295 18.3701 18.3703 17.9293 18.3663 17.3869L18.3544 15.801C18.3489 15.0516 18.647 14.3317 19.181 13.8056L20.3107 12.6927C20.6971 12.312 20.6971 11.6887 20.3107 11.308L19.1809 10.195C18.6469 9.66891 18.3489 8.94899 18.3544 8.19959L18.3663 6.61371C18.3703 6.07123 17.9295 5.63053 17.3872 5.63459L15.8013 5.64646C15.0518 5.65207 14.3319 5.35383 13.8058 4.81992L12.6929 3.69015Z" fill="#005EEB"/>
</svg>
