<svg width="24" height="24" viewBox="0 0 24 24" fill="none" xmlns="http://www.w3.org/2000/svg">
<path fill-rule="evenodd" clip-rule="evenodd" d="M12.7345 2.97881C12.5658 2.74061 12.292 2.59903 12.0001 2.59903C11.7082 2.59903 11.4344 2.74061 11.2657 2.97881L8.86231 6.3718C8.53049 6.84025 8.31232 7.14705 8.12671 7.36842C7.94788 7.58169 7.84923 7.65302 7.78381 7.68739C7.57838 7.79532 7.34409 7.83552 7.11444 7.80224C7.04129 7.79164 6.92452 7.75728 6.68482 7.6158C6.43604 7.46897 6.12808 7.25244 5.65909 6.92139L4.01913 5.76376C3.73015 5.55978 3.34849 5.54398 3.04365 5.72337C2.73881 5.90277 2.56731 6.2441 2.60533 6.59576L3.60533 15.8458C3.65473 16.3027 4.0405 16.649 4.50011 16.649H19.5001C19.9597 16.649 20.3454 16.3027 20.3948 15.8458L21.3948 6.59576C21.4328 6.2441 21.2614 5.90277 20.9565 5.72337C20.6517 5.54398 20.27 5.55978 19.981 5.76376L18.3411 6.92139C17.8721 7.25244 17.5641 7.46897 17.3153 7.6158C17.0756 7.75728 16.9589 7.79164 16.8857 7.80224C16.6561 7.83552 16.4218 7.79532 16.2164 7.68739C16.1509 7.65302 16.0523 7.58169 15.8735 7.36842C15.6878 7.14705 15.4697 6.84025 15.1379 6.3718L12.7345 2.97881ZM12.0001 5.05606L13.9737 7.84257C14.329 8.34534 14.6234 8.76177 14.9945 9.03852C15.738 9.59279 16.7016 9.75813 17.5873 9.48336C18.0295 9.34616 18.4457 9.05166 18.9483 8.69608L19.3911 8.38345L18.6921 14.849H5.30804L4.60906 8.38345L5.0518 8.69608C5.5544 9.05166 5.97066 9.34616 6.41288 9.48336C7.29853 9.75813 8.26218 9.59279 9.00559 9.03852C9.37679 8.76176 9.67108 8.34535 10.0264 7.84257L12.0001 5.05606Z" fill="#429E00"/>
<path d="M5.00017 19.099C4.50311 19.099 4.10017 19.502 4.10017 19.999C4.10017 20.4961 4.50311 20.899 5.00017 20.899H19.0001C19.4972 20.899 19.9001 20.4961 19.9001 19.999C19.9001 19.502 19.4972 19.099 19.0001 19.099H5.00017Z" fill="#429E00"/>
</svg>
