<svg width="24" height="24" viewBox="0 0 24 24" fill="none" xmlns="http://www.w3.org/2000/svg">
<path fill-rule="evenodd" clip-rule="evenodd" d="M21.3865 2.61396C20.3448 1.57208 18.6556 1.57203 17.6138 2.61387L8.36383 11.8639C8.19505 12.0326 8.10023 12.2616 8.10023 12.5003V15.0003C8.10023 15.4973 8.50317 15.9003 9.00022 15.9003H11.5002C11.7389 15.9003 11.9678 15.8054 12.1366 15.6366L21.3865 6.38653C22.4282 5.34477 22.4282 3.65576 21.3865 2.61396ZM18.8866 3.88666C19.2254 3.54779 19.7749 3.54781 20.1137 3.88669C20.4525 4.22555 20.4525 4.77491 20.1137 5.11375L11.1274 14.1003H9.90022V12.873L18.8866 3.88666Z" fill="white"/>
<path d="M12.1028 3.10318C12.5984 3.10318 13.0001 3.5049 13.0001 4.00046C13.0001 4.49601 12.5984 4.89774 12.1028 4.89774H6.80021C5.98565 4.89774 5.79182 4.90884 5.6603 4.95158C5.32542 5.06039 5.06287 5.32294 4.95406 5.65782C4.91132 5.78934 4.90022 5.98318 4.90022 6.79774V17.1977C4.90022 18.0123 4.91132 18.2061 4.95406 18.3377C5.06287 18.6725 5.32542 18.9351 5.6603 19.0439C5.79182 19.0866 5.98565 19.0977 6.80021 19.0977H17.2002C18.0147 19.0977 18.2086 19.0866 18.3401 19.0439C18.675 18.9351 18.9375 18.6725 19.0463 18.3377C19.0891 18.2061 19.1002 18.0123 19.1002 17.1977V11.9008C19.1002 11.4038 19.5031 11.0008 20.0001 11.0008C20.4971 11.0008 20.9 11.4038 20.9 11.9008V16.8386C20.9 17.3684 20.9001 17.8197 20.8698 18.1901C20.838 18.5792 20.7684 18.9578 20.584 19.3197C20.3059 19.8654 19.8623 20.3091 19.3166 20.5871C18.9547 20.7715 18.5761 20.8411 18.1869 20.8729C17.8165 20.9032 17.3654 20.9032 16.8355 20.9032H7.16468C6.63485 20.9032 6.18362 20.9032 5.81321 20.8729C5.42405 20.8411 5.04545 20.7715 4.68352 20.5871C4.13785 20.3091 3.69421 19.8654 3.41618 19.3197C3.23177 18.9578 3.16213 18.5792 3.13034 18.1901C3.10008 17.8197 3.10009 17.3685 3.1001 16.8387V7.16778C3.10009 6.63795 3.10008 6.1867 3.13034 5.81629C3.16213 5.42713 3.23177 5.04854 3.41618 4.68661C3.69421 4.14094 4.13785 3.69729 4.68352 3.41926C5.04545 3.23485 5.42405 3.16521 5.81321 3.13342C6.18362 3.10315 6.63477 3.10316 7.16459 3.10318H12.1028Z" fill="white"/>
</svg>
