<svg width="48" height="48" viewBox="0 0 48 48" fill="none" xmlns="http://www.w3.org/2000/svg">
<path d="M15.2003 14.5061C15.2003 9.64595 19.1402 5.70605 24.0003 5.70605C28.8604 5.70605 32.8003 9.64595 32.8003 14.5061C32.8003 19.3662 28.8604 23.3061 24.0003 23.3061C19.1402 23.3061 15.2003 19.3662 15.2003 14.5061Z" fill="white"/>
<path d="M24.0001 27.1982C19.3763 27.1982 15.0614 28.1034 11.8329 29.8425C8.60661 31.5803 6.20021 34.3306 6.20021 37.9982L6.2002 38.6536C6.20014 39.0269 6.20008 39.407 6.22662 39.7319C6.25616 40.0933 6.32731 40.5418 6.55991 40.9983C6.87631 41.6193 7.38118 42.1241 8.00215 42.4405C8.45866 42.6731 8.90716 42.7442 9.26861 42.7737C9.5935 42.8002 9.97356 42.8001 10.3469 42.8001L37.6539 42.7984C38.0272 42.7985 38.4072 42.7985 38.732 42.772C39.0935 42.7424 39.5419 42.6712 39.9984 42.4386C40.6193 42.1223 41.1241 41.6174 41.4404 40.9965C41.673 40.54 41.7441 40.0916 41.7737 39.7302C41.8002 39.4053 41.8001 39.0253 41.8001 38.652L41.8001 37.9982C41.8001 34.3306 39.3937 31.5803 36.1674 29.8425C32.9389 28.1034 28.624 27.1982 24.0001 27.1982Z" fill="white"/>
</svg>
