<svg width="203" height="44" viewBox="0 0 203 44" fill="none" xmlns="http://www.w3.org/2000/svg">
<path d="M27.6079 43.1758C25.7412 43.1758 24.2666 42.6158 23.1839 41.4958C22.1012 40.3384 21.5226 38.8451 21.4479 37.0158C21.2986 33.8424 20.4959 31.6024 19.0399 30.2958C17.6212 28.9518 15.7172 28.2798 13.3279 28.2798H12.2079V37.2398C12.2079 39.1811 11.6852 40.6558 10.6399 41.6638C9.59457 42.6718 8.21324 43.1758 6.49591 43.1758C4.66657 43.1758 3.22924 42.6718 2.18391 41.6638C1.13857 40.6558 0.615907 39.1811 0.615907 37.2398V29.3438C0.615907 25.3864 1.19457 22.3811 2.35191 20.3278C3.54657 18.2744 5.05857 16.7998 6.88791 15.9038L6.60791 14.8398H5.71191C3.99457 14.8398 2.63191 14.2984 1.62391 13.2158C0.653241 12.0958 0.130574 10.5838 0.0559072 8.67978C0.0185739 6.81311 0.522574 5.30111 1.56791 4.14378C2.61324 2.98645 3.99457 2.40778 5.71191 2.40778H19.9919C23.9866 2.40778 27.2159 3.37845 29.6799 5.31978C32.1439 7.26111 33.3759 10.3598 33.3759 14.6158C33.3759 16.8184 33.0026 18.6664 32.2559 20.1598C31.5092 21.6158 30.5572 22.7358 29.3999 23.5198C28.2426 24.3038 27.0292 24.7704 25.7599 24.9198V25.6478C28.0746 26.2078 29.9786 27.4398 31.4719 29.3438C33.0026 31.2478 33.7679 33.8051 33.7679 37.0158C33.7679 39.0691 33.2079 40.6184 32.0879 41.6638C31.0052 42.6718 29.5119 43.1758 27.6079 43.1758ZM11.9279 19.7118C11.9279 20.5331 12.0772 21.0744 12.3759 21.3358C12.6746 21.5971 13.2346 21.7278 14.0559 21.7278H19.3199C20.8879 21.7278 22.0266 21.3731 22.7359 20.6638C23.4452 19.9544 23.7999 18.9651 23.7999 17.6958C23.7999 16.3891 23.4452 15.3811 22.7359 14.6718C22.0266 13.9624 20.8879 13.6078 19.3199 13.6078H14.0559C13.2346 13.6078 12.6746 13.7198 12.3759 13.9438C12.0772 14.1678 11.9279 14.7091 11.9279 15.5678V19.7118ZM42.8858 43.1758C40.2724 43.1758 38.1444 42.1864 36.5018 40.2078C34.8591 38.2291 34.0191 35.4478 33.9818 31.8638L33.9258 18.9278C33.9258 17.3224 34.4111 16.0718 35.3818 15.1758C36.3898 14.2424 37.7524 13.7758 39.4698 13.7758C41.1124 13.7758 42.4378 14.2424 43.4458 15.1758C44.4538 16.0718 44.9578 17.3224 44.9578 18.9278V30.6318C44.9578 33.4318 46.0591 34.8318 48.2618 34.8318C49.3444 34.8318 50.0724 34.4398 50.4458 33.6558C50.8191 32.8344 51.0058 31.7891 51.0058 30.5198V18.9278C51.0058 17.4718 51.5098 16.2584 52.5178 15.2878C53.5258 14.2798 54.8324 13.7758 56.4378 13.7758C58.1178 13.7758 59.4058 14.2798 60.3018 15.2878C61.2351 16.2584 61.7018 17.4718 61.7018 18.9278V37.2958C61.7018 39.0878 61.2911 40.5251 60.4698 41.6078C59.6858 42.6531 58.3978 43.1758 56.6058 43.1758C54.8511 43.1758 53.4698 42.6531 52.4618 41.6078C51.4911 40.5251 51.0058 39.0878 51.0058 37.2958V36.3438H49.9978C49.9978 38.5091 49.3444 40.1891 48.0378 41.3838C46.7684 42.5784 45.0511 43.1758 42.8858 43.1758ZM68.251 43.1758C66.6084 43.1758 65.283 42.6904 64.275 41.7198C63.3044 40.7118 62.819 39.4798 62.819 38.0238V19.4878C62.819 17.9198 63.2857 16.5944 64.219 15.5118C65.1524 14.4291 66.4964 13.8878 68.251 13.8878C69.9684 13.8878 71.275 14.4291 72.171 15.5118C73.067 16.5944 73.515 17.9571 73.515 19.5998V22.3998H74.523C74.523 20.2718 74.8964 18.5918 75.643 17.3598C76.427 16.1278 77.4164 15.2504 78.611 14.7278C79.8057 14.1678 81.0004 13.8878 82.195 13.8878C85.0697 13.8878 87.179 14.9331 88.523 17.0238C89.867 19.0771 90.539 22.0078 90.539 25.8158V38.0238C90.539 39.4798 90.0537 40.7118 89.083 41.7198C88.1124 42.6904 86.8057 43.1758 85.163 43.1758C83.483 43.1758 82.139 42.6904 81.131 41.7198C80.1604 40.7118 79.675 39.4798 79.675 38.0238V28.1118C79.675 26.7678 79.4137 25.7224 78.891 24.9758C78.4057 24.2291 77.6777 23.8558 76.707 23.8558C75.587 23.8558 74.7657 24.2664 74.243 25.0878C73.7577 25.9091 73.515 26.9544 73.515 28.2238V38.0238C73.515 39.4798 73.0484 40.7118 72.115 41.7198C71.1817 42.6904 69.8937 43.1758 68.251 43.1758ZM114.83 2.40778C119.272 2.40778 122.894 3.24778 125.694 4.92778C128.531 6.57045 130.622 8.92244 131.966 11.9838C133.347 15.0078 134.038 18.6104 134.038 22.7918C134.038 29.8104 132.526 34.9624 129.502 38.2478C126.478 41.5331 121.848 43.1758 115.614 43.1758H113.15C111.32 43.1758 109.622 42.9891 108.054 42.6158C106.486 42.2424 105.104 41.5704 103.91 40.5998C102.715 39.5918 101.782 38.1918 101.11 36.3998C100.438 34.6078 100.102 32.2931 100.102 29.4558C100.102 26.8051 100.456 24.5091 101.166 22.5678C101.912 20.6264 102.79 19.0771 103.798 17.9198C104.806 16.7624 105.72 16.0531 106.542 15.7918L106.262 14.7278H105.31C103.592 14.7278 102.23 14.1864 101.222 13.1038C100.251 11.9838 99.7471 10.4904 99.7097 8.62378C99.6724 6.75711 100.158 5.26378 101.166 4.14378C102.211 2.98645 103.592 2.40778 105.31 2.40778H114.83ZM110.798 28.7278C110.798 29.5118 110.966 30.0531 111.302 30.3518C111.675 30.6504 112.216 30.7998 112.926 30.7998H115.95C117.854 30.7998 119.328 30.3891 120.374 29.5678C121.419 28.7464 122.147 27.7011 122.558 26.4318C123.006 25.1251 123.23 23.7438 123.23 22.2878C123.23 20.8318 123.006 19.4318 122.558 18.0878C122.147 16.7438 121.419 15.6424 120.374 14.7838C119.328 13.9251 117.854 13.4958 115.95 13.4958H112.926C112.216 13.4958 111.675 13.6638 111.302 13.9998C110.966 14.2984 110.798 14.8584 110.798 15.6798V28.7278ZM144.131 43.1758C141.517 43.1758 139.389 42.1864 137.747 40.2078C136.104 38.2291 135.264 35.4478 135.227 31.8638L135.171 18.9278C135.171 17.3224 135.656 16.0718 136.627 15.1758C137.635 14.2424 138.997 13.7758 140.715 13.7758C142.357 13.7758 143.683 14.2424 144.691 15.1758C145.699 16.0718 146.203 17.3224 146.203 18.9278V30.6318C146.203 33.4318 147.304 34.8318 149.507 34.8318C150.589 34.8318 151.317 34.4398 151.691 33.6558C152.064 32.8344 152.251 31.7891 152.251 30.5198V18.9278C152.251 17.4718 152.755 16.2584 153.763 15.2878C154.771 14.2798 156.077 13.7758 157.683 13.7758C159.363 13.7758 160.651 14.2798 161.547 15.2878C162.48 16.2584 162.947 17.4718 162.947 18.9278V37.2958C162.947 39.0878 162.536 40.5251 161.715 41.6078C160.931 42.6531 159.643 43.1758 157.851 43.1758C156.096 43.1758 154.715 42.6531 153.707 41.6078C152.736 40.5251 152.251 39.0878 152.251 37.2958V36.3438H151.243C151.243 38.5091 150.589 40.1891 149.283 41.3838C148.013 42.5784 146.296 43.1758 144.131 43.1758ZM163.84 28.6158C163.84 25.6664 164.419 23.0718 165.576 20.8318C166.771 18.5918 168.451 16.8371 170.616 15.5678C172.819 14.2984 175.432 13.6638 178.456 13.6638C180.808 13.6638 182.917 14.0931 184.784 14.9518C186.688 15.8104 188.181 16.9678 189.264 18.4238C190.347 19.8424 190.888 21.4104 190.888 23.1278C190.888 24.9198 190.365 26.1891 189.32 26.9358C188.275 27.6824 186.725 28.0558 184.672 28.0558H172.912C172.912 29.0264 173.285 29.8291 174.032 30.4638C174.816 31.0984 176.123 31.4158 177.952 31.4158C178.885 31.4158 179.744 31.3224 180.528 31.1358C181.349 30.9491 182.171 30.7811 182.992 30.6318C183.851 30.4451 184.803 30.3518 185.848 30.3518C187.341 30.3518 188.573 30.8931 189.544 31.9758C190.515 33.0211 191 34.4771 191 36.3438C191 38.5464 189.861 40.2638 187.584 41.4958C185.344 42.7278 182.395 43.3438 178.736 43.3438C176.16 43.3438 173.733 42.8398 171.456 41.8318C169.216 40.8238 167.387 39.2371 165.968 37.0718C164.549 34.8691 163.84 32.0504 163.84 28.6158ZM181.984 26.2078C182.544 26.2078 182.731 25.9464 182.544 25.4238C182.395 24.9011 181.947 24.3598 181.2 23.7998C180.453 23.2398 179.371 22.9598 177.952 22.9598C176.309 22.9598 175.077 23.3144 174.256 24.0238C173.472 24.7331 173.08 25.4611 173.08 26.2078H181.984ZM197.018 43.1758C195.189 43.1758 193.808 42.6904 192.874 41.7198C191.978 40.7491 191.53 39.5358 191.53 38.0798V5.59978C191.53 3.99445 191.978 2.66911 192.874 1.62378C193.808 0.541113 195.189 -0.000220299 197.018 -0.000220299C198.661 -0.000220299 199.93 0.541113 200.826 1.62378C201.722 2.66911 202.17 3.95711 202.17 5.48778V38.0798C202.17 39.5358 201.722 40.7491 200.826 41.7198C199.93 42.6904 198.661 43.1758 197.018 43.1758Z" fill="white"/>
</svg>
