<svg width="24" height="24" viewBox="0 0 24 24" fill="none" xmlns="http://www.w3.org/2000/svg">
<path fill-rule="evenodd" clip-rule="evenodd" d="M8.04981 12.0002C8.04981 9.81872 9.81827 8.05024 11.9998 8.05024C14.1813 8.05024 15.9498 9.81872 15.9498 12.0002C15.9498 14.1818 14.1813 15.9502 11.9998 15.9502C9.81827 15.9502 8.04981 14.1818 8.04981 12.0002ZM11.9998 9.95024C10.8676 9.95024 9.9498 10.8681 9.9498 12.0002C9.9498 13.1324 10.8676 14.0502 11.9998 14.0502C13.132 14.0502 14.0498 13.1324 14.0498 12.0002C14.0498 10.8681 13.132 9.95024 11.9998 9.95024Z" fill="white"/>
<path fill-rule="evenodd" clip-rule="evenodd" d="M10.131 1.97103C10.7376 1.85866 11.3623 1.80005 11.9998 1.80005C12.6373 1.80005 13.262 1.85866 13.8686 1.97103C14.91 2.16398 15.3502 3.11343 15.4926 3.7047C15.589 4.10497 15.8415 4.46336 16.2246 4.68457C16.6075 4.9056 17.0437 4.94519 17.4382 4.82889C18.0215 4.65699 19.0614 4.56469 19.7491 5.3674C20.559 6.31285 21.1993 7.40903 21.6222 8.60879C21.9736 9.606 21.3725 10.4601 20.9322 10.8785C20.6338 11.1621 20.4496 11.56 20.4496 12.0024C20.4496 12.4446 20.6335 12.8423 20.9317 13.1258C21.3718 13.5444 21.9725 14.3988 21.6206 15.3959C21.1964 16.5976 20.554 17.6952 19.7415 18.6415C19.055 19.4411 18.0185 19.3504 17.4362 19.1797C17.0422 19.0643 16.607 19.1041 16.2249 19.3247C15.8429 19.5453 15.5908 19.9022 15.4938 20.3009C15.3503 20.8907 14.9095 21.8359 13.8712 22.0286C13.2639 22.1413 12.6383 22.2001 11.9998 22.2001C11.3615 22.2001 10.7361 22.1413 10.1289 22.0287C9.09019 21.836 8.6495 20.8903 8.50612 20.3004C8.40915 19.9014 8.15701 19.5443 7.77488 19.3237C7.39269 19.1031 6.95733 19.0632 6.5633 19.1788C5.98085 19.3496 4.94396 19.4405 4.25729 18.6406C3.44572 17.6951 2.80385 16.5985 2.37982 15.3981C2.02769 14.4012 2.62808 13.5467 3.06804 13.128C3.36599 12.8444 3.54977 12.4469 3.54977 12.0049C3.54977 11.5623 3.36555 11.1644 3.06695 10.8808C2.6266 10.4625 2.02538 9.60856 2.37653 8.61133C2.79913 7.41122 3.43938 6.3147 4.24923 5.36893C4.93698 4.56576 5.97745 4.65824 6.56082 4.8303C6.95546 4.9467 7.39177 4.90714 7.77468 4.68606C8.15801 4.46474 8.41057 4.10612 8.50684 3.70562C8.64903 3.11413 9.08917 2.16406 10.131 1.97103ZM10.4987 3.83528C10.4943 3.83974 10.4882 3.84654 10.4804 3.85652C10.4386 3.91026 10.3876 4.01064 10.3542 4.14972C10.1412 5.03567 9.57763 5.83905 8.72468 6.33151C7.87267 6.82342 6.89634 6.91017 6.02333 6.65269C5.88635 6.61229 5.77408 6.60628 5.70657 6.6157C5.69371 6.61749 5.68461 6.61942 5.67851 6.62101C5.02986 7.38247 4.51685 8.26184 4.17596 9.22177C4.17763 9.22775 4.18047 9.23638 4.18521 9.24804C4.21075 9.31091 4.27201 9.40489 4.37546 9.50315C5.03599 10.1306 5.44976 11.0202 5.44976 12.0049C5.44976 12.9884 5.03699 13.877 4.37787 14.5043C4.27451 14.6027 4.21335 14.6967 4.18787 14.7596C4.18314 14.7713 4.18032 14.7799 4.17865 14.7859C4.5207 15.7461 5.03504 16.6256 5.6851 17.3868C5.69117 17.3884 5.70023 17.3903 5.71303 17.3921C5.78019 17.4015 5.89196 17.3957 6.02857 17.3556C6.90029 17.0999 7.87452 17.1873 8.72488 17.6783C9.57511 18.1692 10.1378 18.969 10.3524 19.8516C10.386 19.9902 10.437 20.09 10.4787 20.1434C10.4865 20.1533 10.4925 20.1601 10.4969 20.1645C10.9836 20.2535 11.4859 20.3 11.9998 20.3C12.5139 20.3 13.0162 20.2534 13.5031 20.1644C13.5075 20.16 13.5135 20.1532 13.5213 20.1433C13.563 20.09 13.614 19.9902 13.6476 19.8517C13.8623 18.9695 14.425 18.17 15.2749 17.6793C16.1251 17.1884 17.099 17.101 17.9706 17.3564C18.1071 17.3964 18.2188 17.4023 18.286 17.3929C18.2988 17.3911 18.3078 17.3891 18.3139 17.3875C18.9646 16.6257 19.4794 15.7453 19.8216 14.7841C19.8199 14.7781 19.8171 14.7695 19.8124 14.7578C19.7869 14.6949 19.7257 14.6009 19.6223 14.5026C18.9627 13.8752 18.5496 12.9863 18.5496 12.0024C18.5496 11.018 18.9632 10.1285 19.6235 9.50116C19.7269 9.40287 19.7881 9.30887 19.8137 9.24598C19.8184 9.23432 19.8212 9.22568 19.8229 9.2197C19.4818 8.26005 18.9687 7.38096 18.32 6.61976C18.3139 6.61817 18.3048 6.61624 18.292 6.61444C18.2245 6.60503 18.1123 6.61102 17.9754 6.65138C17.1025 6.90865 16.1264 6.82182 15.2746 6.33002C14.4221 5.8378 13.8586 5.03495 13.6454 4.14949C13.6119 4.01049 13.561 3.91019 13.5191 3.8565C13.5114 3.84653 13.5053 3.83973 13.5009 3.83528C13.0147 3.74653 12.5131 3.70005 11.9998 3.70005C11.4865 3.70005 10.9849 3.74653 10.4987 3.83528ZM19.8252 9.20895L19.8249 9.21109L19.8252 9.20895ZM19.8239 14.7949L19.8236 14.7927L19.8239 14.7949ZM4.17639 14.7966L4.17663 14.7945L4.17639 14.7966ZM4.17369 9.21101L4.17393 9.21316L4.17369 9.21101Z" fill="white"/>
</svg>
