<svg width="40" height="40" viewBox="0 0 40 40" fill="none" xmlns="http://www.w3.org/2000/svg">
<path fill-rule="evenodd" clip-rule="evenodd" d="M10.5828 14.5815C10.5828 12.3724 12.3736 10.5815 14.5828 10.5815C16.7919 10.5815 18.5827 12.3724 18.5827 14.5815C18.5827 16.7907 16.7919 18.5815 14.5828 18.5815C12.3736 18.5815 10.5828 16.7907 10.5828 14.5815ZM14.5828 13.5815C14.0305 13.5815 13.5828 14.0293 13.5828 14.5815C13.5828 15.1338 14.0305 15.5815 14.5828 15.5815C15.135 15.5815 15.5828 15.1338 15.5828 14.5815C15.5828 14.0293 15.135 13.5815 14.5828 13.5815Z" fill="#37383C" fill-opacity="0.28"/>
<path fill-rule="evenodd" clip-rule="evenodd" d="M13.7701 4.33252C12.4234 4.3325 11.322 4.33249 10.4268 4.40563C9.50033 4.48133 8.66354 4.6428 7.88206 5.04098C6.65901 5.66416 5.66464 6.65853 5.04146 7.88159C4.64328 8.66307 4.48181 9.49986 4.40611 10.4264C4.33298 11.3215 4.33299 12.4229 4.33301 13.7697V26.2287C4.33299 27.5754 4.33298 28.6769 4.40611 29.572C4.48181 30.4985 4.64328 31.3353 5.04146 32.1168C5.66464 33.3399 6.65901 34.3342 7.88206 34.9574C8.66354 35.3556 9.50033 35.5171 10.4268 35.5928C11.322 35.6659 12.4234 35.6659 13.7701 35.6659H26.2291C27.5759 35.6659 28.6773 35.6659 29.5724 35.5928C30.4989 35.5171 31.3357 35.3556 32.1172 34.9574C33.3402 34.3342 34.3346 33.3399 34.9578 32.1168C35.356 31.3353 35.5174 30.4985 35.5931 29.572C35.6663 28.6769 35.6663 27.5755 35.6662 26.2287V13.7697C35.6663 12.4229 35.6663 11.3215 35.5931 10.4264C35.5174 9.49986 35.356 8.66307 34.9578 7.88159C34.3346 6.65853 33.3402 5.66416 32.1172 5.04098C31.3357 4.6428 30.4989 4.48133 29.5724 4.40563C28.6773 4.33249 27.5759 4.3325 26.2292 4.33252H13.7701ZM9.24402 7.714C9.5321 7.56722 9.93015 7.4562 10.6711 7.39566C11.4297 7.33369 12.4081 7.33252 13.833 7.33252H26.1663C27.5911 7.33252 28.5696 7.33369 29.3281 7.39566C30.0691 7.4562 30.4671 7.56722 30.7552 7.714C31.4138 8.04956 31.9492 8.58499 32.2848 9.24356C32.4315 9.53163 32.5426 9.92968 32.6031 10.6707C32.6651 11.4292 32.6662 12.4076 32.6662 13.8325V18.0456L32.2895 17.6689C31.6651 17.0444 31.1333 16.5126 30.6611 16.1118C30.165 15.6906 29.6368 15.3265 28.9929 15.1173C28.0222 14.8019 26.9765 14.8019 26.0058 15.1173C25.3619 15.3265 24.8336 15.6906 24.3375 16.1118C23.8653 16.5126 23.3337 17.0443 22.7093 17.6688L8.55501 31.8231C8.20972 31.5271 7.92337 31.1648 7.71447 30.7548C7.56769 30.4668 7.45668 30.0687 7.39614 29.3277C7.33417 28.5692 7.333 27.5907 7.333 26.1659V13.8325C7.333 12.4076 7.33417 11.4292 7.39614 10.6707C7.45668 9.92968 7.56769 9.53163 7.71447 9.24356C8.05003 8.58499 8.58546 8.04956 9.24402 7.714ZM11.9638 32.6569C12.49 32.6656 13.1029 32.6659 13.833 32.6659H26.1663C27.5911 32.6659 28.5696 32.6647 29.3281 32.6027C30.0691 32.5422 30.4671 32.4312 30.7552 32.2844C31.4138 31.9488 31.9492 31.4134 32.2848 30.7548C32.4315 30.4668 32.5426 30.0687 32.6031 29.3277C32.6651 28.5692 32.6662 27.5907 32.6662 26.1659V22.2883L30.2099 19.8319C29.5324 19.1544 29.0872 18.7108 28.7196 18.3988C28.3654 18.0981 28.1831 18.0085 28.0659 17.9704C27.6977 17.8508 27.301 17.8508 26.9328 17.9704C26.8156 18.0085 26.6333 18.0981 26.2791 18.3988C25.9115 18.7108 25.4663 19.1544 24.7888 19.8319L11.9638 32.6569Z" fill="#37383C" fill-opacity="0.28"/>
</svg>
