<svg width="24" height="24" viewBox="0 0 24 24" fill="none" xmlns="http://www.w3.org/2000/svg">
<path d="M7.85034 13.4994C7.85034 13.0023 8.25328 12.5994 8.75034 12.5994H12.7503C13.2474 12.5994 13.6503 13.0023 13.6503 13.4994C13.6503 13.9964 13.2474 14.3994 12.7503 14.3994H8.75034C8.25328 14.3994 7.85034 13.9964 7.85034 13.4994Z" fill="#429E00"/>
<path d="M7.85034 16.9999C7.85034 16.5028 8.25328 16.0999 8.75034 16.0999H12.7503C13.2474 16.0999 13.6503 16.5028 13.6503 16.9999C13.6503 17.4969 13.2474 17.8999 12.7503 17.8999H8.75034C8.25328 17.8999 7.85034 17.4969 7.85034 16.9999Z" fill="#429E00"/>
<path fill-rule="evenodd" clip-rule="evenodd" d="M13.2793 2.1525C13.0564 2.09897 12.8293 2.0995 12.6375 2.09993L12.5873 2.10001H7.91468C7.38481 2.1 6.93364 2.09998 6.56321 2.13025C6.17405 2.16205 5.79545 2.23168 5.43352 2.41609C4.88785 2.69413 4.44421 3.13777 4.16618 3.68344C3.98177 4.04537 3.91213 4.42397 3.88034 4.81313C3.85007 5.18354 3.85009 5.63469 3.8501 6.16453V17.8354C3.85009 18.3652 3.85007 18.8165 3.88034 19.1869C3.91213 19.5761 3.98177 19.9547 4.16618 20.3166C4.44421 20.8623 4.88785 21.3059 5.43352 21.5839C5.79545 21.7683 6.17405 21.838 6.56321 21.8698C6.93362 21.9 7.38478 21.9 7.91462 21.9H16.0855C16.6153 21.9 17.0665 21.9 17.4369 21.8698C17.8261 21.838 18.2047 21.7683 18.5666 21.5839C19.1123 21.3059 19.5559 20.8623 19.834 20.3166C20.0184 19.9547 20.088 19.5761 20.1198 19.1869C20.1501 18.8165 20.1501 18.3653 20.15 17.8355V9.66231L20.1501 9.61213C20.1506 9.42025 20.1511 9.19319 20.0975 8.97019C20.051 8.77631 19.9742 8.59097 19.87 8.42097C19.7502 8.22543 19.5893 8.06525 19.4533 7.92989L19.4177 7.89446L14.355 2.83216L14.3196 2.79663C14.1842 2.66067 14.024 2.49977 13.8285 2.37996C13.6585 2.2758 13.4732 2.19904 13.2793 2.1525ZM12.6004 3.90025C12.5961 3.90025 12.5917 3.90025 12.5873 3.90025H7.95007C7.37516 3.90025 6.99812 3.90095 6.70976 3.92451C6.43192 3.94721 6.31657 3.98657 6.25068 4.02014C6.0437 4.1256 5.87543 4.29388 5.76997 4.50086C5.73639 4.56675 5.69703 4.68209 5.67433 4.95994C5.65077 5.24829 5.65007 5.62534 5.65007 6.20025V17.8002C5.65007 18.3752 5.65077 18.7522 5.67433 19.0406C5.69703 19.3184 5.73639 19.4337 5.76997 19.4996C5.87543 19.7066 6.0437 19.8749 6.25068 19.9804C6.31657 20.0139 6.43192 20.0533 6.70976 20.076C6.99812 20.0995 7.37516 20.1002 7.95007 20.1002H16.05C16.6249 20.1002 17.002 20.0995 17.2903 20.076C17.5682 20.0533 17.6835 20.0139 17.7494 19.9804C17.9564 19.8749 18.1247 19.7066 18.2301 19.4996C18.2637 19.4337 18.3031 19.3184 18.3258 19.0406C18.3493 18.7522 18.35 18.3752 18.35 17.8002V9.89996L15.0707 9.89996C14.8163 9.89999 14.5743 9.90001 14.3703 9.88335C14.1479 9.86517 13.8928 9.82279 13.6378 9.69287C13.2803 9.51071 12.9897 9.22005 12.8075 8.86254C12.6776 8.60756 12.6352 8.35245 12.617 8.13005C12.6004 7.9261 12.6004 7.68407 12.6004 7.42977L12.6004 3.90025ZM17.0773 8.09995L14.4004 5.42334V7.99995C14.4004 8.05518 14.4452 8.09995 14.5004 8.09995H17.0773Z" fill="#429E00"/>
</svg>
