<svg width="16" height="16" viewBox="0 0 16 16" fill="none" xmlns="http://www.w3.org/2000/svg">
<path d="M7.66645 4.39976C7.99782 4.39976 8.26644 4.66839 8.26644 4.99976V8.08465L9.74054 9.55875C9.97485 9.79306 9.97485 10.173 9.74054 10.4073C9.50622 10.6416 9.12633 10.6416 8.89201 10.4073L7.2421 8.75736C7.12242 8.63768 7.06387 8.48001 7.06645 8.32316V4.99976C7.06645 4.66839 7.33508 4.39976 7.66645 4.39976Z" fill="#8F3400"/>
<path fill-rule="evenodd" clip-rule="evenodd" d="M7.99988 1.40002C4.35481 1.40002 1.3999 4.35495 1.3999 8.00002C1.3999 11.6451 4.35481 14.6 7.99988 14.6C11.6449 14.6 14.5999 11.6451 14.5999 8.00002C14.5999 4.35495 11.6449 1.40002 7.99988 1.40002ZM2.5999 8.00002C2.5999 5.01769 5.01755 2.60002 7.99988 2.60002C10.9822 2.60002 13.3999 5.01769 13.3999 8.00002C13.3999 10.9824 10.9822 13.4 7.99988 13.4C5.01755 13.4 2.5999 10.9824 2.5999 8.00002Z" fill="#8F3400"/>
</svg>
