<svg width="24" height="24" viewBox="0 0 24 24" fill="none" xmlns="http://www.w3.org/2000/svg">
<path fill-rule="evenodd" clip-rule="evenodd" d="M13.3371 1.1664C13.7155 1.31926 13.9436 1.70757 13.893 2.11251L13.0195 9.10088L16.8406 9.10088C17.3207 9.10086 17.7416 9.10084 18.0743 9.13118C18.4028 9.16114 18.8215 9.23101 19.1713 9.50491C19.6203 9.8565 19.8877 10.3912 19.8995 10.9614C19.9088 11.4056 19.7134 11.7825 19.5403 12.0632C19.365 12.3476 19.1124 12.6843 18.8243 13.0684L11.72 22.5409C11.4751 22.8674 11.0413 22.9882 10.6629 22.8354C10.2845 22.6825 10.0563 22.2942 10.1069 21.8892L10.9805 14.9009L7.15931 14.9009C6.6792 14.9009 6.25834 14.9009 5.92561 14.8706C5.59718 14.8406 5.17845 14.7708 4.82865 14.4969C4.37962 14.1453 4.11227 13.6106 4.10041 13.0404C4.09118 12.5962 4.28652 12.2193 4.45961 11.9386C4.63497 11.6542 4.88751 11.3175 5.1756 10.9334L12.28 1.46088C12.5248 1.13441 12.9587 1.01354 13.3371 1.1664ZM11.6866 5.25218L5.91999 12.941C5.90208 12.9649 5.8991 12.9808 5.89837 12.9914C5.89738 13.0056 5.90023 13.025 5.91055 13.0457C5.92088 13.0663 5.93472 13.0803 5.94668 13.088C5.95557 13.0938 5.97013 13.101 5.99999 13.101H12C12.2581 13.101 12.5038 13.2118 12.6747 13.4054C12.8455 13.5989 12.925 13.8565 12.893 14.1126L12.3134 18.7498L18.08 11.061C18.0979 11.0371 18.1009 11.0211 18.1016 11.0105C18.1026 10.9963 18.0997 10.9769 18.0894 10.9563C18.0791 10.9356 18.0652 10.9217 18.0533 10.9139C18.0444 10.9082 18.0298 10.901 18 10.901H12C11.7418 10.901 11.4961 10.7901 11.3253 10.5966C11.1544 10.4031 11.0749 10.1455 11.1069 9.88934L11.6866 5.25218Z" fill="#E52222"/>
</svg>
