<svg width="48" height="48" viewBox="0 0 48 48" fill="none" xmlns="http://www.w3.org/2000/svg">
<path d="M38.2252 14.2796C38.2252 18.1344 35.0991 21.2594 31.243 21.2594C27.3868 21.2594 24.2608 18.1344 24.2608 14.2796C24.2608 10.4248 27.3868 7.2998 31.243 7.2998C35.0991 7.2998 38.2252 10.4248 38.2252 14.2796Z" fill="white"/>
<path d="M21.2811 17.0256C21.2811 20.4795 18.4802 23.2795 15.0251 23.2795C11.5699 23.2795 8.76901 20.4795 8.76901 17.0256C8.76901 13.5717 11.5699 10.7717 15.0251 10.7717C18.4802 10.7717 21.2811 13.5717 21.2811 17.0256Z" fill="white"/>
<path d="M17.0924 26.5352C17.1483 26.4887 17.2041 26.4421 17.2507 26.4049C16.5338 26.3305 15.7891 26.2746 15.0164 26.2746C5.53921 26.2746 0 32.1655 0 37.7494C0 39.5176 1.18232 40.6902 2.94183 40.6902H12.5679C12.0001 39.7595 11.6835 38.6428 11.6835 37.405C11.6835 33.394 13.6479 29.4295 17.0831 26.5259L17.0924 26.5352Z" fill="white"/>
<path d="M21.0206 27.1773C23.7018 25.5952 27.137 24.5994 31.2426 24.5994V24.6087C41.8183 24.6087 47.9998 31.1697 47.9998 37.4143C47.9998 39.3872 46.6872 40.6994 44.7135 40.6994H17.7716C15.7979 40.6994 14.4853 39.3872 14.4853 37.4143C14.4853 33.5987 16.8034 29.6621 21.0206 27.1773Z" fill="white"/>
</svg>
