<svg width="28" height="28" viewBox="0 0 28 28" fill="none" xmlns="http://www.w3.org/2000/svg">
<path fill-rule="evenodd" clip-rule="evenodd" d="M12.9943 1.64287C13.6259 1.32152 14.3731 1.32152 15.0047 1.64287C15.5116 1.90076 15.8026 2.37924 15.9967 2.74965C16.2016 3.14075 16.4193 3.66431 16.6737 4.27595L18.0799 7.65684C18.1642 7.85966 18.2099 7.96818 18.2481 8.04609C18.2596 8.06957 18.2675 8.08408 18.2721 8.09202C18.2791 8.09859 18.2869 8.10427 18.2954 8.10892C18.3043 8.11082 18.3206 8.11389 18.3465 8.11758C18.4324 8.12985 18.5497 8.13971 18.7687 8.15727L22.4185 8.44987C23.0789 8.50279 23.6441 8.54809 24.0794 8.62212C24.4916 8.69223 25.0366 8.82116 25.4385 9.22353C25.9393 9.72492 26.1702 10.4355 26.0598 11.1355C25.9711 11.6973 25.606 12.1219 25.3137 12.421C25.0051 12.7367 24.5744 13.1056 24.0713 13.5365L21.2905 15.9186C21.1236 16.0615 21.0345 16.1385 20.9722 16.1989C20.9535 16.2171 20.9421 16.2291 20.936 16.2359C20.9319 16.2446 20.9289 16.2538 20.9271 16.2633C20.9281 16.2724 20.9302 16.2888 20.9347 16.3146C20.9495 16.4 20.9764 16.5147 21.0274 16.7283L21.877 20.2901C22.0307 20.9344 22.1623 21.486 22.2264 21.9228C22.2871 22.3366 22.3329 22.8947 22.0744 23.4013C21.7523 24.0325 21.1478 24.4717 20.448 24.583C19.8863 24.6723 19.3696 24.4562 18.9949 24.2706C18.5993 24.0747 18.1154 23.7791 17.5502 23.4338L14.4252 21.5251C14.2377 21.4106 14.137 21.3496 14.0603 21.3091C14.0372 21.2968 14.0223 21.2898 14.0139 21.286C14.0043 21.2848 13.9947 21.2848 13.9851 21.286C13.9768 21.2898 13.9618 21.2968 13.9387 21.3091C13.862 21.3496 13.7613 21.4106 13.5738 21.5251L10.449 23.4337C9.88368 23.7791 9.39977 24.0747 9.0041 24.2706C8.62937 24.4562 8.11268 24.6723 7.55103 24.583C6.85117 24.4717 6.24669 24.0325 5.9246 23.4013C5.66612 22.8947 5.71191 22.3366 5.77262 21.9228C5.83673 21.4859 5.96832 20.9344 6.12205 20.29L6.97163 16.7283C7.0226 16.5147 7.04947 16.4 7.06435 16.3146C7.06884 16.2888 7.07094 16.2724 7.07191 16.2633C7.07009 16.2538 7.0671 16.2446 7.06302 16.2359C7.05688 16.2291 7.04554 16.2171 7.02677 16.1989C6.96448 16.1385 6.87537 16.0615 6.70854 15.9186L3.92772 13.5365C3.42465 13.1056 2.99392 12.7367 2.6853 12.421C2.39299 12.1219 2.02786 11.6973 1.93922 11.1355C1.82877 10.4355 2.05967 9.72492 2.56047 9.22353C2.96236 8.82116 3.50736 8.69223 3.91961 8.62212C4.3549 8.54809 4.92014 8.50279 5.58047 8.44988L9.23035 8.15727C9.44932 8.13971 9.56663 8.12985 9.65253 8.11758C9.67842 8.11389 9.69467 8.11082 9.70364 8.10892C9.71206 8.10427 9.71987 8.09859 9.7269 8.09202C9.73147 8.08408 9.73942 8.06957 9.75093 8.04609C9.78914 7.96818 9.83477 7.85966 9.91913 7.65684L11.3253 4.27604C11.5796 3.66439 11.7974 3.14075 12.0023 2.74965C12.1964 2.37924 12.4874 1.90076 12.9943 1.64287ZM13.9319 3.52094C13.923 3.52655 13.9074 3.53802 13.8917 3.57554L11.6939 8.85989C11.3747 9.62738 10.6529 10.1518 9.82432 10.2182L4.11944 10.6756C4.07894 10.6788 4.06317 10.6902 4.0551 10.6969C4.04258 10.7073 4.02722 10.7268 4.0178 10.7558C4.00839 10.7848 4.00933 10.8096 4.01335 10.8254C4.01594 10.8356 4.022 10.854 4.05286 10.8805L8.39938 14.6037C9.03066 15.1445 9.30635 15.993 9.11349 16.8015L7.78555 22.3685C7.77613 22.4081 7.78207 22.4266 7.78596 22.4363C7.79198 22.4514 7.80581 22.4721 7.83046 22.49C7.85511 22.5079 7.87902 22.5147 7.89526 22.5157C7.90573 22.5164 7.92517 22.5164 7.95985 22.4952L12.844 19.5119C13.5534 19.0786 14.4455 19.0786 15.1549 19.5119L20.0391 22.4952C20.0738 22.5164 20.0932 22.5164 20.1037 22.5157C20.1199 22.5147 20.1438 22.5079 20.1685 22.49C20.1931 22.4721 20.207 22.4514 20.213 22.4363C20.2169 22.4266 20.2228 22.4081 20.2134 22.3685L18.8855 16.8015C18.6926 15.993 18.9683 15.1445 19.5996 14.6037L23.9461 10.8805C23.9769 10.854 23.983 10.8356 23.9856 10.8254C23.9896 10.8096 23.9905 10.7848 23.9811 10.7558C23.9717 10.7268 23.9564 10.7073 23.9438 10.6969C23.9358 10.6902 23.92 10.6788 23.8795 10.6756L18.1746 10.2182C17.346 10.1518 16.6243 9.62738 16.3051 8.8599L14.1072 3.57554C14.0916 3.53802 14.0759 3.52655 14.067 3.52094C14.0533 3.51224 14.0299 3.50368 13.9995 3.50368C13.969 3.50368 13.9457 3.51224 13.9319 3.52094Z" fill="white"/>
</svg>
